# Blender 4.3.2
# www.blender.org
o Sphere
v 0.000000 0.831470 0.555570
v 0.000000 0.555570 0.831470
v 0.000000 0.195090 0.980785
v 0.000000 0.000000 1.000000
v -0.038060 0.980785 0.191342
v -0.074658 0.923880 0.375330
v -0.108386 0.831470 0.544895
v -0.137950 0.707107 0.693520
v -0.162212 0.555570 0.815493
v -0.180240 0.382683 0.906127
v -0.191342 0.195090 0.961940
v -0.195090 0.000000 0.980785
v -0.074658 0.980785 0.180240
v -0.146447 0.923880 0.353553
v -0.212608 0.831470 0.513280
v -0.270598 0.707107 0.653281
v -0.318190 0.555570 0.768178
v -0.353553 0.382683 0.853553
v -0.375330 0.195090 0.906127
v -0.382683 0.000000 0.923879
v -0.108386 0.980785 0.162212
v -0.212608 0.923880 0.318190
v -0.308658 0.831470 0.461940
v -0.392847 0.707107 0.587938
v -0.461940 0.555570 0.691342
v -0.513280 0.382683 0.768178
v -0.544895 0.195090 0.815493
v -0.555570 0.000000 0.831469
v -0.137950 0.980785 0.137950
v -0.270598 0.923880 0.270598
v -0.392847 0.831470 0.392847
v -0.500000 0.707107 0.500000
v -0.587938 0.555570 0.587938
v -0.653281 0.382683 0.653281
v -0.693520 0.195090 0.693520
v -0.707107 0.000000 0.707107
v -0.162212 0.980785 0.108386
v -0.318190 0.923880 0.212608
v -0.461940 0.831470 0.308658
v -0.587938 0.707107 0.392847
v -0.691342 0.555570 0.461940
v -0.768178 0.382683 0.513280
v -0.815493 0.195090 0.544895
v -0.831470 0.000000 0.555570
v 0.000000 1.000000 0.000000
v -0.180240 0.980785 0.074658
v -0.353553 0.923880 0.146447
v -0.513280 0.831470 0.212607
v -0.653281 0.707107 0.270598
v -0.768178 0.555570 0.318190
v -0.853553 0.382683 0.353553
v -0.906127 0.195090 0.375330
v -0.923879 0.000000 0.382683
v -0.191342 0.980785 0.038060
v -0.375330 0.923880 0.074658
v -0.544895 0.831470 0.108386
v -0.693520 0.707107 0.137950
v -0.815493 0.555570 0.162212
v -0.906127 0.382683 0.180240
v -0.961940 0.195090 0.191342
v -0.980785 0.000000 0.195090
v -0.195090 0.980785 -0.000000
v -0.382683 0.923880 -0.000000
v -0.555570 0.831470 -0.000000
v -0.707107 0.707107 0.000000
v -0.831469 0.555570 -0.000000
v -0.923879 0.382683 0.000000
v -0.980785 0.195090 -0.000000
v -1.000000 0.000000 -0.000000
v -0.191342 0.980785 -0.038060
v -0.375330 0.923880 -0.074658
v -0.544895 0.831470 -0.108386
v -0.693520 0.707107 -0.137950
v -0.815493 0.555570 -0.162212
v -0.906127 0.382683 -0.180240
v -0.961940 0.195090 -0.191342
v -0.980785 0.000000 -0.195090
v -0.180240 0.980785 -0.074658
v -0.353553 0.923880 -0.146447
v -0.513280 0.831470 -0.212608
v -0.653281 0.707107 -0.270598
v -0.768178 0.555570 -0.318190
v -0.853553 0.382683 -0.353553
v -0.906127 0.195090 -0.375330
v -0.923879 0.000000 -0.382683
v -0.162212 0.980785 -0.108386
v -0.318190 0.923880 -0.212608
v -0.461940 0.831470 -0.308658
v -0.587938 0.707107 -0.392847
v -0.691341 0.555570 -0.461940
v -0.768178 0.382683 -0.513280
v -0.815493 0.195090 -0.544895
v -0.831469 0.000000 -0.555570
v -0.137950 0.980785 -0.137950
v -0.270598 0.923880 -0.270598
v -0.392847 0.831470 -0.392847
v -0.500000 0.707107 -0.500000
v -0.587938 0.555570 -0.587938
v -0.653281 0.382683 -0.653281
v -0.693520 0.195090 -0.693520
v -0.707106 0.000000 -0.707107
v -0.108386 0.980785 -0.162212
v -0.212607 0.923880 -0.318190
v -0.308658 0.831470 -0.461940
v -0.392847 0.707107 -0.587938
v -0.461940 0.555570 -0.691342
v -0.513280 0.382683 -0.768178
v -0.544895 0.195090 -0.815493
v -0.555570 0.000000 -0.831469
v -0.074658 0.980785 -0.180240
v -0.146447 0.923880 -0.353553
v -0.212607 0.831470 -0.513280
v -0.270598 0.707107 -0.653281
v -0.318189 0.555570 -0.768178
v -0.353553 0.382683 -0.853553
v -0.375330 0.195090 -0.906127
v -0.382683 0.000000 -0.923879
v -0.038060 0.980785 -0.191342
v -0.074658 0.923880 -0.375330
v -0.108386 0.831470 -0.544895
v -0.137950 0.707107 -0.693520
v -0.162212 0.555570 -0.815493
v -0.180240 0.382683 -0.906127
v -0.191342 0.195090 -0.961939
v -0.195090 0.000000 -0.980785
v 0.000000 0.980785 -0.195090
v 0.000000 0.923880 -0.382683
v 0.000000 0.831470 -0.555570
v 0.000000 0.707107 -0.707107
v 0.000000 0.555570 -0.831469
v -0.000000 0.382683 -0.923879
v 0.000000 0.195090 -0.980785
v 0.000000 0.000000 -0.999999
v 0.038060 0.980785 -0.191342
v 0.074658 0.923880 -0.375330
v 0.108386 0.831470 -0.544895
v 0.137950 0.707107 -0.693520
v 0.162212 0.555570 -0.815493
v 0.180240 0.382683 -0.906127
v 0.191342 0.195090 -0.961939
v 0.195091 0.000000 -0.980785
v 0.074658 0.980785 -0.180240
v 0.146447 0.923880 -0.353553
v 0.212608 0.831470 -0.513280
v 0.270598 0.707107 -0.653281
v 0.318190 0.555570 -0.768177
v 0.353553 0.382683 -0.853553
v 0.375330 0.195090 -0.906127
v 0.382683 0.000000 -0.923879
v 0.108386 0.980785 -0.162212
v 0.212608 0.923880 -0.318190
v 0.308658 0.831470 -0.461939
v 0.392847 0.707107 -0.587938
v 0.461940 0.555570 -0.691341
v 0.513280 0.382683 -0.768178
v 0.544895 0.195090 -0.815493
v 0.555570 0.000000 -0.831469
v 0.137950 0.980785 -0.137950
v 0.270598 0.923880 -0.270598
v 0.392847 0.831470 -0.392847
v 0.500000 0.707107 -0.500000
v 0.587938 0.555570 -0.587937
v 0.653281 0.382683 -0.653281
v 0.693520 0.195090 -0.693520
v 0.707106 0.000000 -0.707106
v 0.162212 0.980785 -0.108386
v 0.318190 0.923880 -0.212607
v 0.461940 0.831470 -0.308658
v 0.587938 0.707107 -0.392847
v 0.691341 0.555570 -0.461939
v 0.768177 0.382683 -0.513280
v 0.815493 0.195090 -0.544895
v 0.831469 0.000000 -0.555569
v 0.180240 0.980785 -0.074658
v 0.353553 0.923880 -0.146447
v 0.513280 0.831470 -0.212607
v 0.653281 0.707107 -0.270598
v 0.768177 0.555570 -0.318189
v 0.853553 0.382683 -0.353553
v 0.906127 0.195090 -0.375330
v 0.923879 0.000000 -0.382683
v 0.191342 0.980785 -0.038060
v 0.375330 0.923880 -0.074658
v 0.544895 0.831470 -0.108386
v 0.693520 0.707107 -0.137950
v 0.815493 0.555570 -0.162211
v 0.906127 0.382683 -0.180240
v 0.961939 0.195090 -0.191341
v 0.980784 0.000000 -0.195090
v 0.195090 0.980785 0.000000
v 0.382683 0.923880 0.000000
v 0.555570 0.831470 0.000000
v 0.707107 0.707107 0.000000
v 0.831469 0.555570 0.000000
v 0.923879 0.382683 0.000000
v 0.980785 0.195090 0.000000
v 0.999999 0.000000 0.000000
v 0.191342 0.980785 0.038060
v 0.375330 0.923880 0.074658
v 0.544895 0.831470 0.108386
v 0.693520 0.707107 0.137950
v 0.815493 0.555570 0.162212
v 0.906127 0.382683 0.180240
v 0.961939 0.195090 0.191342
v 0.980784 0.000000 0.195091
v 0.180240 0.980785 0.074658
v 0.353553 0.923880 0.146447
v 0.513279 0.831470 0.212607
v 0.653281 0.707107 0.270598
v 0.768177 0.555570 0.318190
v 0.853553 0.382683 0.353553
v 0.906127 0.195090 0.375330
v 0.923878 0.000000 0.382683
v 0.162212 0.980785 0.108386
v 0.318189 0.923880 0.212607
v 0.461939 0.831470 0.308658
v 0.587938 0.707107 0.392847
v 0.691341 0.555570 0.461940
v 0.768177 0.382683 0.513280
v 0.815493 0.195090 0.544895
v 0.831468 0.000000 0.555570
v 0.137950 0.980785 0.137950
v 0.270598 0.923880 0.270598
v 0.392847 0.831470 0.392847
v 0.500000 0.707107 0.500000
v 0.587937 0.555570 0.587938
v 0.653281 0.382683 0.653281
v 0.693519 0.195090 0.693520
v 0.707106 0.000000 0.707106
v 0.108386 0.980785 0.162212
v 0.212607 0.923880 0.318190
v 0.308658 0.831470 0.461939
v 0.392847 0.707107 0.587938
v 0.461939 0.555570 0.691341
v 0.513280 0.382683 0.768177
v 0.544895 0.195090 0.815493
v 0.555569 0.000000 0.831469
v 0.074658 0.980785 0.180240
v 0.146446 0.923880 0.353553
v 0.212607 0.831470 0.513279
v 0.270598 0.707107 0.653281
v 0.318189 0.555570 0.768177
v 0.353553 0.382683 0.853553
v 0.375330 0.195090 0.906127
v 0.382683 0.000000 0.923879
v 0.038060 0.980785 0.191342
v 0.074658 0.923880 0.375330
v 0.108386 0.831470 0.544895
v 0.137950 0.707107 0.693520
v 0.162211 0.555570 0.815493
v 0.180240 0.382683 0.906127
v 0.191341 0.195090 0.961939
v 0.195090 0.000000 0.980784
v -0.000000 0.980785 0.195090
v -0.000000 0.923880 0.382683
v -0.000000 0.707107 0.707107
v -0.000000 0.382683 0.923879
vn -0.0938 0.2890 0.9527
vn -0.0975 0.0975 0.9904
vn -0.0097 0.9951 0.0980
vn -0.0286 0.9565 0.2902
vn -0.0464 0.8810 0.4709
vn -0.0624 0.7715 0.6332
vn -0.0759 0.6326 0.7708
vn -0.0865 0.4696 0.8786
vn -0.2563 0.4696 0.8448
vn -0.2779 0.2890 0.9161
vn -0.2889 0.0976 0.9524
vn -0.0286 0.9951 0.0942
vn -0.0846 0.9565 0.2790
vn -0.1374 0.8810 0.4528
vn -0.1847 0.7715 0.6088
vn -0.2248 0.6326 0.7412
vn -0.2230 0.8810 0.4173
vn -0.2999 0.7715 0.5611
vn -0.3651 0.6326 0.6831
vn -0.4162 0.4696 0.7786
vn -0.4513 0.2890 0.8443
vn -0.4691 0.0975 0.8777
vn -0.0464 0.9951 0.0869
vn -0.1374 0.9565 0.2571
vn -0.6073 0.2890 0.7400
vn -0.6314 0.0975 0.7693
vn -0.0625 0.9951 0.0761
vn -0.1850 0.9565 0.2254
vn -0.3002 0.8810 0.3658
vn -0.4036 0.7715 0.4918
vn -0.4913 0.6326 0.5987
vn -0.5601 0.4696 0.6825
vn -0.3658 0.8810 0.3002
vn -0.4918 0.7715 0.4036
vn -0.5987 0.6326 0.4913
vn -0.6825 0.4696 0.5601
vn -0.7400 0.2890 0.6073
vn -0.7693 0.0975 0.6314
vn -0.0761 0.9951 0.0625
vn -0.2254 0.9565 0.1850
vn -0.8443 0.2890 0.4513
vn -0.8777 0.0975 0.4691
vn -0.0869 0.9951 0.0464
vn -0.2571 0.9565 0.1374
vn -0.4173 0.8810 0.2230
vn -0.5611 0.7715 0.2999
vn -0.6831 0.6326 0.3651
vn -0.7786 0.4696 0.4162
vn -0.6088 0.7715 0.1847
vn -0.7412 0.6326 0.2248
vn -0.8448 0.4696 0.2563
vn -0.9161 0.2890 0.2779
vn -0.9524 0.0975 0.2889
vn -0.0942 0.9951 0.0286
vn -0.2790 0.9565 0.0846
vn -0.4528 0.8810 0.1374
vn -0.9904 0.0975 0.0975
vn -0.0980 0.9951 0.0097
vn -0.2902 0.9565 0.0286
vn -0.4709 0.8810 0.0464
vn -0.6332 0.7715 0.0624
vn -0.7708 0.6326 0.0759
vn -0.8786 0.4696 0.0865
vn -0.9527 0.2890 0.0938
vn -0.7708 0.6326 -0.0759
vn -0.8786 0.4696 -0.0865
vn -0.9527 0.2890 -0.0938
vn -0.9904 0.0975 -0.0976
vn -0.0980 0.9951 -0.0097
vn -0.2902 0.9565 -0.0286
vn -0.4709 0.8810 -0.0464
vn -0.6332 0.7715 -0.0624
vn -0.0942 0.9951 -0.0286
vn -0.2790 0.9565 -0.0846
vn -0.4528 0.8810 -0.1374
vn -0.6088 0.7715 -0.1847
vn -0.7412 0.6326 -0.2248
vn -0.8448 0.4696 -0.2563
vn -0.9161 0.2890 -0.2779
vn -0.9524 0.0975 -0.2889
vn -0.6831 0.6326 -0.3651
vn -0.7786 0.4696 -0.4162
vn -0.8443 0.2890 -0.4513
vn -0.8777 0.0975 -0.4691
vn -0.0869 0.9951 -0.0464
vn -0.2571 0.9565 -0.1374
vn -0.4173 0.8810 -0.2230
vn -0.5611 0.7715 -0.2999
vn -0.2254 0.9565 -0.1850
vn -0.3658 0.8810 -0.3002
vn -0.4918 0.7715 -0.4036
vn -0.5987 0.6326 -0.4913
vn -0.6825 0.4696 -0.5601
vn -0.7400 0.2890 -0.6073
vn -0.7693 0.0975 -0.6314
vn -0.0761 0.9951 -0.0625
vn -0.5601 0.4696 -0.6825
vn -0.6073 0.2890 -0.7400
vn -0.6314 0.0975 -0.7693
vn -0.0625 0.9951 -0.0761
vn -0.1850 0.9565 -0.2254
vn -0.3002 0.8810 -0.3658
vn -0.4036 0.7715 -0.4918
vn -0.4913 0.6326 -0.5987
vn -0.1374 0.9565 -0.2571
vn -0.2230 0.8810 -0.4173
vn -0.2999 0.7715 -0.5611
vn -0.3651 0.6326 -0.6831
vn -0.4162 0.4696 -0.7786
vn -0.4513 0.2890 -0.8443
vn -0.4691 0.0975 -0.8777
vn -0.0464 0.9951 -0.0869
vn -0.2563 0.4696 -0.8448
vn -0.2779 0.2890 -0.9161
vn -0.2889 0.0975 -0.9524
vn -0.0286 0.9951 -0.0942
vn -0.0846 0.9565 -0.2790
vn -0.1374 0.8810 -0.4528
vn -0.1847 0.7715 -0.6088
vn -0.2248 0.6326 -0.7412
vn -0.0464 0.8810 -0.4709
vn -0.0624 0.7715 -0.6332
vn -0.0759 0.6326 -0.7708
vn -0.0865 0.4696 -0.8786
vn -0.0938 0.2890 -0.9527
vn -0.0975 0.0975 -0.9904
vn -0.0097 0.9951 -0.0980
vn -0.0286 0.9565 -0.2902
vn 0.0938 0.2890 -0.9527
vn 0.0976 0.0975 -0.9904
vn 0.0097 0.9951 -0.0980
vn 0.0286 0.9565 -0.2902
vn 0.0464 0.8810 -0.4709
vn 0.0624 0.7715 -0.6332
vn 0.0759 0.6326 -0.7708
vn 0.0865 0.4696 -0.8786
vn 0.1847 0.7715 -0.6088
vn 0.2248 0.6326 -0.7412
vn 0.2563 0.4696 -0.8448
vn 0.2779 0.2890 -0.9161
vn 0.2889 0.0975 -0.9524
vn 0.0286 0.9951 -0.0942
vn 0.0846 0.9565 -0.2790
vn 0.1374 0.8810 -0.4528
vn 0.4691 0.0975 -0.8777
vn 0.0464 0.9951 -0.0869
vn 0.1374 0.9565 -0.2571
vn 0.2230 0.8810 -0.4173
vn 0.2999 0.7715 -0.5611
vn 0.3651 0.6326 -0.6831
vn 0.4162 0.4696 -0.7786
vn 0.4513 0.2890 -0.8443
vn 0.4036 0.7715 -0.4918
vn 0.4913 0.6326 -0.5987
vn 0.5601 0.4696 -0.6825
vn 0.6073 0.2890 -0.7400
vn 0.6314 0.0975 -0.7693
vn 0.0625 0.9951 -0.0761
vn 0.1850 0.9565 -0.2254
vn 0.3002 0.8810 -0.3658
vn 0.7693 0.0975 -0.6314
vn 0.0761 0.9951 -0.0625
vn 0.2254 0.9565 -0.1850
vn 0.3658 0.8810 -0.3002
vn 0.4918 0.7715 -0.4036
vn 0.5987 0.6326 -0.4913
vn 0.6825 0.4696 -0.5601
vn 0.7400 0.2890 -0.6073
vn 0.6831 0.6326 -0.3651
vn 0.7786 0.4696 -0.4162
vn 0.8443 0.2890 -0.4513
vn 0.8777 0.0975 -0.4691
vn 0.0869 0.9951 -0.0464
vn 0.2571 0.9565 -0.1374
vn 0.4173 0.8810 -0.2230
vn 0.5611 0.7715 -0.2999
vn 0.0942 0.9951 -0.0286
vn 0.2790 0.9565 -0.0846
vn 0.4528 0.8810 -0.1374
vn 0.6088 0.7715 -0.1847
vn 0.7412 0.6326 -0.2248
vn 0.8448 0.4696 -0.2563
vn 0.9161 0.2890 -0.2779
vn 0.9524 0.0975 -0.2889
vn 0.7708 0.6326 -0.0759
vn 0.8786 0.4696 -0.0865
vn 0.9527 0.2890 -0.0938
vn 0.9904 0.0975 -0.0975
vn 0.0980 0.9951 -0.0097
vn 0.2902 0.9565 -0.0286
vn 0.4709 0.8810 -0.0464
vn 0.6332 0.7715 -0.0624
vn 0.2902 0.9565 0.0286
vn 0.4709 0.8810 0.0464
vn 0.6332 0.7715 0.0624
vn 0.7708 0.6326 0.0759
vn 0.8786 0.4696 0.0865
vn 0.9527 0.2890 0.0938
vn 0.9904 0.0975 0.0976
vn 0.0980 0.9951 0.0097
vn 0.8448 0.4696 0.2563
vn 0.9161 0.2890 0.2779
vn 0.9524 0.0975 0.2889
vn 0.0942 0.9951 0.0286
vn 0.2790 0.9565 0.0846
vn 0.4528 0.8810 0.1374
vn 0.6088 0.7715 0.1847
vn 0.7412 0.6326 0.2248
vn 0.4173 0.8810 0.2231
vn 0.5611 0.7715 0.2999
vn 0.6831 0.6326 0.3651
vn 0.7786 0.4696 0.4162
vn 0.8443 0.2890 0.4513
vn 0.8777 0.0975 0.4691
vn 0.0869 0.9951 0.0464
vn 0.2571 0.9565 0.1374
vn 0.7400 0.2890 0.6073
vn 0.7693 0.0975 0.6314
vn 0.0761 0.9951 0.0625
vn 0.2254 0.9565 0.1850
vn 0.3658 0.8810 0.3002
vn 0.4918 0.7715 0.4036
vn 0.5987 0.6326 0.4913
vn 0.6825 0.4696 0.5601
vn 0.3002 0.8810 0.3658
vn 0.4036 0.7715 0.4918
vn 0.4913 0.6326 0.5987
vn 0.5601 0.4696 0.6825
vn 0.6073 0.2890 0.7400
vn 0.6314 0.0975 0.7693
vn 0.0625 0.9951 0.0761
vn 0.1850 0.9565 0.2254
vn 0.4513 0.2890 0.8443
vn 0.4691 0.0975 0.8777
vn 0.0464 0.9951 0.0869
vn 0.1374 0.9565 0.2571
vn 0.2230 0.8810 0.4173
vn 0.2999 0.7715 0.5611
vn 0.3651 0.6326 0.6831
vn 0.4162 0.4696 0.7786
vn 0.1847 0.7715 0.6088
vn 0.2248 0.6326 0.7412
vn 0.2563 0.4696 0.8448
vn 0.2779 0.2890 0.9161
vn 0.2889 0.0975 0.9524
vn 0.0286 0.9951 0.0942
vn 0.0846 0.9565 0.2790
vn 0.1374 0.8810 0.4528
vn -0.0000 -1.0000 -0.0000
vn 0.0976 0.0975 0.9904
vn 0.0097 0.9951 0.0980
vn 0.0286 0.9565 0.2902
vn 0.0464 0.8810 0.4709
vn 0.0624 0.7715 0.6332
vn 0.0759 0.6326 0.7708
vn 0.0865 0.4696 0.8786
vn 0.0938 0.2890 0.9527
s 0
f 3//1 257//1 10//1 11//1
f 4//2 3//2 11//2 12//2
f 254//3 45//3 5//3
f 255//4 254//4 5//4 6//4
f 1//5 255//5 6//5 7//5
f 256//6 1//6 7//6 8//6
f 2//7 256//7 8//7 9//7
f 257//8 2//8 9//8 10//8
f 10//9 9//9 17//9 18//9
f 11//10 10//10 18//10 19//10
f 12//11 11//11 19//11 20//11
f 5//12 45//12 13//12
f 6//13 5//13 13//13 14//13
f 7//14 6//14 14//14 15//14
f 8//15 7//15 15//15 16//15
f 9//16 8//16 16//16 17//16
f 15//17 14//17 22//17 23//17
f 16//18 15//18 23//18 24//18
f 17//19 16//19 24//19 25//19
f 18//20 17//20 25//20 26//20
f 19//21 18//21 26//21 27//21
f 20//22 19//22 27//22 28//22
f 13//23 45//23 21//23
f 14//24 13//24 21//24 22//24
f 27//25 26//25 34//25 35//25
f 28//26 27//26 35//26 36//26
f 21//27 45//27 29//27
f 22//28 21//28 29//28 30//28
f 23//29 22//29 30//29 31//29
f 24//30 23//30 31//30 32//30
f 25//31 24//31 32//31 33//31
f 26//32 25//32 33//32 34//32
f 31//33 30//33 38//33 39//33
f 32//34 31//34 39//34 40//34
f 33//35 32//35 40//35 41//35
f 34//36 33//36 41//36 42//36
f 35//37 34//37 42//37 43//37
f 36//38 35//38 43//38 44//38
f 29//39 45//39 37//39
f 30//40 29//40 37//40 38//40
f 43//41 42//41 51//41 52//41
f 44//42 43//42 52//42 53//42
f 37//43 45//43 46//43
f 38//44 37//44 46//44 47//44
f 39//45 38//45 47//45 48//45
f 40//46 39//46 48//46 49//46
f 41//47 40//47 49//47 50//47
f 42//48 41//48 50//48 51//48
f 49//49 48//49 56//49 57//49
f 50//50 49//50 57//50 58//50
f 51//51 50//51 58//51 59//51
f 52//52 51//52 59//52 60//52
f 53//53 52//53 60//53 61//53
f 46//54 45//54 54//54
f 47//55 46//55 54//55 55//55
f 48//56 47//56 55//56 56//56
f 61//57 60//57 68//57 69//57
f 54//58 45//58 62//58
f 55//59 54//59 62//59 63//59
f 56//60 55//60 63//60 64//60
f 57//61 56//61 64//61 65//61
f 58//62 57//62 65//62 66//62
f 59//63 58//63 66//63 67//63
f 60//64 59//64 67//64 68//64
f 66//65 65//65 73//65 74//65
f 67//66 66//66 74//66 75//66
f 68//67 67//67 75//67 76//67
f 69//68 68//68 76//68 77//68
f 62//69 45//69 70//69
f 63//70 62//70 70//70 71//70
f 64//71 63//71 71//71 72//71
f 65//72 64//72 72//72 73//72
f 70//73 45//73 78//73
f 71//74 70//74 78//74 79//74
f 72//75 71//75 79//75 80//75
f 73//76 72//76 80//76 81//76
f 74//77 73//77 81//77 82//77
f 75//78 74//78 82//78 83//78
f 76//79 75//79 83//79 84//79
f 77//80 76//80 84//80 85//80
f 82//81 81//81 89//81 90//81
f 83//82 82//82 90//82 91//82
f 84//83 83//83 91//83 92//83
f 85//84 84//84 92//84 93//84
f 78//85 45//85 86//85
f 79//86 78//86 86//86 87//86
f 80//87 79//87 87//87 88//87
f 81//88 80//88 88//88 89//88
f 87//89 86//89 94//89 95//89
f 88//90 87//90 95//90 96//90
f 89//91 88//91 96//91 97//91
f 90//92 89//92 97//92 98//92
f 91//93 90//93 98//93 99//93
f 92//94 91//94 99//94 100//94
f 93//95 92//95 100//95 101//95
f 86//96 45//96 94//96
f 99//97 98//97 106//97 107//97
f 100//98 99//98 107//98 108//98
f 101//99 100//99 108//99 109//99
f 94//100 45//100 102//100
f 95//101 94//101 102//101 103//101
f 96//102 95//102 103//102 104//102
f 97//103 96//103 104//103 105//103
f 98//104 97//104 105//104 106//104
f 103//105 102//105 110//105 111//105
f 104//106 103//106 111//106 112//106
f 105//107 104//107 112//107 113//107
f 106//108 105//108 113//108 114//108
f 107//109 106//109 114//109 115//109
f 108//110 107//110 115//110 116//110
f 109//111 108//111 116//111 117//111
f 102//112 45//112 110//112
f 115//113 114//113 122//113 123//113
f 116//114 115//114 123//114 124//114
f 117//115 116//115 124//115 125//115
f 110//116 45//116 118//116
f 111//117 110//117 118//117 119//117
f 112//118 111//118 119//118 120//118
f 113//119 112//119 120//119 121//119
f 114//120 113//120 121//120 122//120
f 120//121 119//121 127//121 128//121
f 121//122 120//122 128//122 129//122
f 122//123 121//123 129//123 130//123
f 123//124 122//124 130//124 131//124
f 124//125 123//125 131//125 132//125
f 125//126 124//126 132//126 133//126
f 118//127 45//127 126//127
f 119//128 118//128 126//128 127//128
f 132//129 131//129 139//129 140//129
f 133//130 132//130 140//130 141//130
f 126//131 45//131 134//131
f 127//132 126//132 134//132 135//132
f 128//133 127//133 135//133 136//133
f 129//134 128//134 136//134 137//134
f 130//135 129//135 137//135 138//135
f 131//136 130//136 138//136 139//136
f 137//137 136//137 144//137 145//137
f 138//138 137//138 145//138 146//138
f 139//139 138//139 146//139 147//139
f 140//140 139//140 147//140 148//140
f 141//141 140//141 148//141 149//141
f 134//142 45//142 142//142
f 135//143 134//143 142//143 143//143
f 136//144 135//144 143//144 144//144
f 149//145 148//145 156//145 157//145
f 142//146 45//146 150//146
f 143//147 142//147 150//147 151//147
f 144//148 143//148 151//148 152//148
f 145//149 144//149 152//149 153//149
f 146//150 145//150 153//150 154//150
f 147//151 146//151 154//151 155//151
f 148//152 147//152 155//152 156//152
f 153//153 152//153 160//153 161//153
f 154//154 153//154 161//154 162//154
f 155//155 154//155 162//155 163//155
f 156//156 155//156 163//156 164//156
f 157//157 156//157 164//157 165//157
f 150//158 45//158 158//158
f 151//159 150//159 158//159 159//159
f 152//160 151//160 159//160 160//160
f 165//161 164//161 172//161 173//161
f 158//162 45//162 166//162
f 159//163 158//163 166//163 167//163
f 160//164 159//164 167//164 168//164
f 161//165 160//165 168//165 169//165
f 162//166 161//166 169//166 170//166
f 163//167 162//167 170//167 171//167
f 164//168 163//168 171//168 172//168
f 170//169 169//169 177//169 178//169
f 171//170 170//170 178//170 179//170
f 172//171 171//171 179//171 180//171
f 173//172 172//172 180//172 181//172
f 166//173 45//173 174//173
f 167//174 166//174 174//174 175//174
f 168//175 167//175 175//175 176//175
f 169//176 168//176 176//176 177//176
f 174//177 45//177 182//177
f 175//178 174//178 182//178 183//178
f 176//179 175//179 183//179 184//179
f 177//180 176//180 184//180 185//180
f 178//181 177//181 185//181 186//181
f 179//182 178//182 186//182 187//182
f 180//183 179//183 187//183 188//183
f 181//184 180//184 188//184 189//184
f 186//185 185//185 193//185 194//185
f 187//186 186//186 194//186 195//186
f 188//187 187//187 195//187 196//187
f 189//188 188//188 196//188 197//188
f 182//189 45//189 190//189
f 183//190 182//190 190//190 191//190
f 184//191 183//191 191//191 192//191
f 185//192 184//192 192//192 193//192
f 191//193 190//193 198//193 199//193
f 192//194 191//194 199//194 200//194
f 193//195 192//195 200//195 201//195
f 194//196 193//196 201//196 202//196
f 195//197 194//197 202//197 203//197
f 196//198 195//198 203//198 204//198
f 197//199 196//199 204//199 205//199
f 190//200 45//200 198//200
f 203//201 202//201 210//201 211//201
f 204//202 203//202 211//202 212//202
f 205//203 204//203 212//203 213//203
f 198//204 45//204 206//204
f 199//205 198//205 206//205 207//205
f 200//206 199//206 207//206 208//206
f 201//207 200//207 208//207 209//207
f 202//208 201//208 209//208 210//208
f 208//209 207//209 215//209 216//209
f 209//210 208//210 216//210 217//210
f 210//211 209//211 217//211 218//211
f 211//212 210//212 218//212 219//212
f 212//213 211//213 219//213 220//213
f 213//214 212//214 220//214 221//214
f 206//215 45//215 214//215
f 207//216 206//216 214//216 215//216
f 220//217 219//217 227//217 228//217
f 221//218 220//218 228//218 229//218
f 214//219 45//219 222//219
f 215//220 214//220 222//220 223//220
f 216//221 215//221 223//221 224//221
f 217//222 216//222 224//222 225//222
f 218//223 217//223 225//223 226//223
f 219//224 218//224 226//224 227//224
f 224//225 223//225 231//225 232//225
f 225//226 224//226 232//226 233//226
f 226//227 225//227 233//227 234//227
f 227//228 226//228 234//228 235//228
f 228//229 227//229 235//229 236//229
f 229//230 228//230 236//230 237//230
f 222//231 45//231 230//231
f 223//232 222//232 230//232 231//232
f 236//233 235//233 243//233 244//233
f 237//234 236//234 244//234 245//234
f 230//235 45//235 238//235
f 231//236 230//236 238//236 239//236
f 232//237 231//237 239//237 240//237
f 233//238 232//238 240//238 241//238
f 234//239 233//239 241//239 242//239
f 235//240 234//240 242//240 243//240
f 241//241 240//241 248//241 249//241
f 242//242 241//242 249//242 250//242
f 243//243 242//243 250//243 251//243
f 244//244 243//244 251//244 252//244
f 245//245 244//245 252//245 253//245
f 238//246 45//246 246//246
f 239//247 238//247 246//247 247//247
f 240//248 239//248 247//248 248//248
f 12//249 20//249 28//249 36//249 44//249 53//249 61//249 69//249 77//249 85//249 93//249 101//249 109//249 117//249 125//249 133//249 141//249 149//249 157//249 165//249 173//249 181//249 189//249 197//249 205//249 213//249 221//249 229//249 237//249 245//249 253//249 4//249
f 253//250 252//250 3//250 4//250
f 246//251 45//251 254//251
f 247//252 246//252 254//252 255//252
f 248//253 247//253 255//253 1//253
f 249//254 248//254 1//254 256//254
f 250//255 249//255 256//255 2//255
f 251//256 250//256 2//256 257//256
f 252//257 251//257 257//257 3//257
